<?xml version="1.0" encoding="UTF-8"?>
<svg id="Layer_1" xmlns="http://www.w3.org/2000/svg" version="1.1" viewBox="0 0 1024 1024">
  <!-- Generator: Adobe Illustrator 30.1.0, SVG Export Plug-In . SVG Version: 2.1.1 Build 136)  -->
  <defs>
    <style>
      .st0 {
        fill: #7b5aa6;
      }

      .st1 {
        fill: #f7b519;
      }

      .st2 {
        fill: #f37321;
      }
    </style>
  </defs>
  <g>
    <path class="st1" d="M821.3,454.8c-10-4.9-18.8-11.2-27.4-18.5-13.3-11.4-19.8-26.9-29-40.8,0-.1-.3-.2-.5-.3-.2,0-.4.2-.5.3-9.2,13.9-15.7,29.4-29,40.8-8.6,7.4-17.4,13.6-27.4,18.5-1.8.9-5.2.2-5,3,.2,2.2,2.4,4.2,4.7,5.2,4,1.9,8.1,3.8,10.3,7.8,3.3,6.2,8.1,9.2,15.1,8.2,5.2-.8,7.8,1.7,10.2,6,6.8,12.5,14.1,24.7,21.7,37.9,7.6-13.2,14.9-25.4,21.7-37.9,2.4-4.4,5-6.8,10.2-6,7,1.1,11.8-1.9,15.1-8.2,2.1-4,6.3-5.9,10.3-7.8,2.2-1.1,4.5-3,4.7-5.2.2-2.8-3.2-2.2-5-3Z"/>
    <path class="st0" d="M343.1,339.5v162c0,47.3-38.4,85.7-85.7,85.7s-85.7-38.4-85.7-85.7v-162h-48v155.7c0,73.9,59.9,133.7,133.7,133.7h0c73.9,0,133.7-59.9,133.7-133.7v-155.7h-48Z"/>
    <path class="st1" d="M562.6,339.5v162c0,47.3-38.4,85.7-85.7,85.7s-85.7-38.4-85.7-85.7v-162h-48v155.7c0,73.9,59.9,133.7,133.7,133.7h0c73.9,0,133.7-59.9,133.7-133.7v-155.7h-48Z"/>
    <g>
      <path class="st2" d="M852.5,514.1c-8.6,38.3-42.7,73.1-83.6,73.1s-75.1-34.8-83.6-73.1h-48.8c9.2,64.9,64.9,114.9,132.4,114.9h0c67.4,0,123.2-49.9,132.4-114.9h-48.8Z"/>
      <rect class="st2" x="854.6" y="339.5" width="48" height="64.3" rx="4.7" ry="4.7"/>
      <rect class="st2" x="635.1" y="339.5" width="48" height="64.3" rx="4.7" ry="4.7"/>
    </g>
  </g>
  <g>
    <path class="st0" d="M136.4,725.9c-1.3-1-2.2-2.4-2.7-4.2l-12.3-48.3c1-.6,2.1-.8,3.5-.8s3,.4,4,1.1c1.1.8,1.8,1.9,2.1,3.3l7.6,33.8-1.3,5,.5.2,11.7-40.6c.2-.9.6-1.5,1.3-2,.7-.5,1.4-.7,2.4-.7s1.6.2,2.3.7c.7.5,1.2,1.2,1.4,2l9.8,35.8-1.2,5.2.6.2,9.3-39.5c.3-1.4,1-2.5,2.1-3.2,1.1-.8,2.4-1.2,4-1.2s2.6.3,3.7.8l-12.4,48.3c-.5,1.8-1.4,3.2-2.7,4.2-1.3,1-3.1,1.4-5.1,1.4l-12.5-44.9-.5.2,1.1,3.9-11.4,40.8c-2.1,0-3.8-.5-5.1-1.4Z"/>
    <path class="st0" d="M183.4,725.3c-1-1.1-1.4-2.5-1.4-4s.3-2.3.8-3.5l18-42.5c.8-1.8,2.1-2.7,4-2.7s3.2.9,3.9,2.7l18,42.5c.5,1.2.8,2.3.8,3.5s-.5,2.9-1.4,4c-1,1.1-2.3,1.8-4.1,2.1l-6.5-15.5h-21.3l-6.6,15.5c-1.8-.3-3.2-.9-4.1-2.1ZM212.8,704.9l-9.4-23.6-.7.3,1.5,3.9-7.8,19.4h16.3Z"/>
    <path class="st0" d="M233.7,725.4c-.8-.8-1.3-1.8-1.3-3v-43.3c0-4.3,2.7-6.5,8.2-6.5v46.9h22.4c2,0,3.5.6,4.6,1.8,1.1,1.2,1.6,3,1.6,5.3h-32.6c-1.2,0-2.2-.4-3-1.3Z"/>
    <path class="st0" d="M271.2,725.3c-1-1.1-1.4-2.5-1.4-4s.3-2.3.8-3.5l18-42.5c.8-1.8,2.1-2.7,4-2.7s3.2.9,3.9,2.7l18,42.5c.5,1.2.8,2.3.8,3.5s-.5,2.9-1.4,4c-1,1.1-2.3,1.8-4.1,2.1l-6.5-15.5h-21.3l-6.6,15.5c-1.8-.3-3.2-.9-4.1-2.1ZM300.6,704.9l-9.4-23.6-.7.3,1.5,3.9-7.8,19.4h16.3Z"/>
    <path class="st0" d="M321.8,679.1c0-2.1.7-3.7,2.1-4.8s3.5-1.7,6.1-1.7v48.3c0,2.1-.7,3.7-2.1,4.8-1.4,1.1-3.5,1.7-6.1,1.7v-48.3Z"/>
    <path class="st0" d="M339.6,725.4c-.8-.8-1.3-1.8-1.3-3v-43.3c0-4.3,2.7-6.5,8.2-6.5v46.9h22.4c2,0,3.5.6,4.6,1.8,1.1,1.2,1.6,3,1.6,5.3h-32.6c-1.2,0-2.2-.4-3-1.3Z"/>
    <path class="st0" d="M377.1,725.3c-1-1.1-1.4-2.5-1.4-4s.3-2.3.8-3.5l18-42.5c.8-1.8,2.1-2.7,4-2.7s3.2.9,3.9,2.7l18,42.5c.5,1.2.8,2.3.8,3.5s-.5,2.9-1.4,4c-1,1.1-2.3,1.8-4.1,2.1l-6.5-15.5h-21.3l-6.6,15.5c-1.8-.3-3.2-.9-4.1-2.1ZM406.5,704.9l-9.4-23.6-.7.3,1.5,3.9-7.8,19.4h16.3Z"/>
    <path class="st0" d="M426.1,679.2c0-2.1.7-3.7,2.2-4.8,1.4-1.1,3.5-1.7,6.1-1.7v25.6l27.1-25.6c1,.8,1.8,1.6,2.4,2.5s1,1.7,1,2.4c0,1.3-.9,2.7-2.6,4.3l-16.9,16,22.3,27.1c-.7.8-1.4,1.3-2.3,1.8s-1.7.6-2.6.6c-2.2,0-3.9-.8-5.2-2.4l-18.1-22-5.1,4.8v13.3c0,2.1-.7,3.7-2,4.7-1.3,1-3.4,1.5-6.3,1.5v-48.2Z"/>
    <path class="st0" d="M499.2,724.8c-3.3-1.7-5.9-4-7.8-6.9-1.9-2.9-2.8-6.2-2.8-9.9v-29c0-2.1.7-3.7,2.1-4.8,1.4-1.1,3.5-1.7,6.1-1.7v35.4c0,3.6,1.2,6.5,3.7,8.7s5.7,3.3,9.8,3.3,7.3-1.1,9.8-3.3c2.5-2.2,3.7-5.1,3.7-8.7v-29c0-2.1.7-3.7,2.1-4.8,1.4-1.1,3.4-1.6,6.1-1.6v35.4c0,3.7-.9,7-2.8,9.9-1.9,2.9-4.5,5.2-7.8,6.9-3.3,1.7-7,2.5-11.1,2.5s-7.8-.8-11.1-2.5Z"/>
    <path class="st0" d="M538.4,679.4c0-2.1.7-3.7,2.1-5s3.2-1.8,5.6-1.8l28.4,43.4.6-.5-2.5-4.2v-38.7c2.6,0,4.7.5,6,1.6,1.4,1.1,2.1,2.7,2.1,4.8v42.2c0,1.7-.6,3.2-1.9,4.3s-2.9,1.8-4.8,1.8l-29.3-44.8-.6.5,2.5,4.2v33.6c0,4.3-2.7,6.5-8.1,6.5v-48Z"/>
    <path class="st0" d="M588.9,679.1c0-2.1.7-3.7,2.1-4.8s3.5-1.7,6.1-1.7v48.3c0,2.1-.7,3.7-2.1,4.8-1.4,1.1-3.5,1.7-6.1,1.7v-48.3Z"/>
    <path class="st0" d="M623.3,724.7l-19.6-51.3c.5-.2,1-.4,1.7-.5s1.2-.2,1.8-.2c1.6,0,2.9.4,4,1.1,1.1.7,1.9,1.8,2.4,3.1l13.3,37-1.5,4.2.7.2,14.9-41.4c.5-1.3,1.3-2.4,2.4-3.1,1.1-.7,2.5-1.1,4-1.1s2.2.3,3.5.8l-19.6,51.3c-.3.9-.8,1.5-1.5,2-.7.5-1.6.7-2.5.7-1.9,0-3.2-.9-3.9-2.7Z"/>
    <path class="st0" d="M655.7,677.1c0-1.1.4-2,1.2-2.7.8-.7,1.8-1.1,3-1.1h33.8c0,2.4-.5,4.2-1.4,5.4-.9,1.1-2.4,1.7-4.4,1.7h-24v15.8h21c0,2.4-.5,4.2-1.4,5.4-.9,1.1-2.4,1.7-4.3,1.7h-15.2v16.3h25.6c1.9,0,3.4.6,4.3,1.7.9,1.1,1.4,2.9,1.4,5.4h-35.4c-1.2,0-2.2-.4-3-1.1-.8-.7-1.2-1.6-1.2-2.7v-45.7Z"/>
    <path class="st0" d="M700.3,677.1c0-1.1.4-2,1.2-2.7s1.8-1.1,3-1.1h20.8c5.1,0,9.1,1.4,12.1,4.3,3,2.9,4.5,6.8,4.5,11.7s-2.6,10.2-7.7,12.7v.2c2.2,1,4,2.5,5.1,4.4s1.8,4.3,1.8,7v7.2c0,2.1-.7,3.7-2.1,4.8-1.4,1.1-3.4,1.7-6.1,1.7v-13.3c0-5.8-2.5-8.7-7.5-8.7h-17v15.5c0,4.3-2.7,6.5-8.1,6.5v-50.2ZM724.9,698.4c2.7,0,4.8-.8,6.4-2.4,1.5-1.6,2.3-3.9,2.3-6.7s-.7-5.1-2.2-6.6c-1.5-1.5-3.6-2.2-6.5-2.2h-16.5v18h16.5Z"/>
    <path class="st0" d="M756.2,725.5c-3.2-1.2-5.7-2.8-7.4-4.8-1.7-2-2.5-4.3-2.5-6.8s.6-3.4,1.7-4.5c1.1-1.1,2.9-1.6,5.3-1.6,0,4.2,1.3,7.3,3.9,9.5,2.5,2.2,6.1,3.3,10.7,3.3s7.4-.7,9.6-2.1c2.3-1.4,3.4-3.5,3.4-6.2s-.4-3-1.3-4.1c-.8-1.1-2.3-2-4.3-2.9-2.1-.8-5-1.7-8.7-2.5-4.8-1.1-8.6-2.3-11.4-3.7-2.8-1.4-4.8-3-6.1-5s-1.9-4.4-1.9-7.3.8-5.3,2.5-7.5,4-3.8,7-5c3-1.2,6.5-1.8,10.4-1.8s7.1.5,10.1,1.6c3,1,5.3,2.5,7,4.4,1.7,1.9,2.6,4,2.6,6.5s-.5,2.7-1.6,3.7c-1.1.9-2.7,1.4-5,1.4-.5-3.8-1.7-6.5-3.8-8.2-2.1-1.7-5.2-2.6-9.2-2.6s-6.7.6-8.7,1.9c-2,1.3-3,3.1-3,5.5s.4,3,1.1,4.1c.8,1.1,2,2,3.9,2.8s4.4,1.5,7.7,2.3c5.2,1.1,9.3,2.4,12.3,3.8,3,1.4,5.2,3.1,6.5,5.1,1.3,2,2,4.5,2,7.4,0,4.7-1.9,8.4-5.8,11.1-3.8,2.7-9,4-15.5,4s-8.2-.6-11.4-1.8Z"/>
    <path class="st0" d="M795.4,679.1c0-2.1.7-3.7,2.1-4.8s3.5-1.7,6.1-1.7v48.3c0,2.1-.7,3.7-2.1,4.8-1.4,1.1-3.5,1.7-6.1,1.7v-48.3Z"/>
    <path class="st0" d="M828,680.5h-18.5c0-4.8,2.2-7.2,6.6-7.2h38.5c0,2.3-.6,4.1-1.7,5.3s-2.8,1.8-5,1.8h-11.8v40.4c0,2.1-.7,3.7-2.1,4.8-1.4,1.1-3.4,1.7-6.1,1.7v-46.9Z"/>
    <path class="st0" d="M872.7,707.4l-18.9-33.8c.4-.3,1-.5,1.8-.7.8-.2,1.6-.3,2.3-.3,2.9,0,5.1,1.2,6.3,3.7l12.4,23.1-1.8,3.6.6.3,13.8-27c1.3-2.5,3.5-3.7,6.4-3.7s1.6,0,2.4.3c.8.2,1.4.4,1.8.7l-19,33.8v13.5c0,2.1-.7,3.7-2.1,4.8-1.4,1.1-3.4,1.7-6.1,1.7v-20Z"/>
  </g>
</svg>